<?xml version="1.0" encoding="UTF-8" standalone="no"?>
<!-- Created with Inkscape (http://www.inkscape.org/) -->

<svg
   width="255.18489mm"
   height="117.28245mm"
   viewBox="0 0 255.18488 117.28245"
   version="1.1"
   id="svg1"
   xml:space="preserve"
   inkscape:export-filename="logo.svg"
   inkscape:export-xdpi="96"
   inkscape:export-ydpi="96"
   sodipodi:docname="logo.svg"
   inkscape:version="1.4 (e7c3feb100, 2024-10-09)"
   xmlns:inkscape="http://www.inkscape.org/namespaces/inkscape"
   xmlns:sodipodi="http://sodipodi.sourceforge.net/DTD/sodipodi-0.dtd"
   xmlns="http://www.w3.org/2000/svg"
   xmlns:svg="http://www.w3.org/2000/svg"><sodipodi:namedview
     id="namedview1"
     pagecolor="#505050"
     bordercolor="#eeeeee"
     borderopacity="1"
     inkscape:showpageshadow="0"
     inkscape:pageopacity="0"
     inkscape:pagecheckerboard="0"
     inkscape:deskcolor="#505050"
     inkscape:document-units="mm"
     inkscape:export-bgcolor="#ffffff00"
     inkscape:zoom="0.54945978"
     inkscape:cx="293.01508"
     inkscape:cy="26.389556"
     inkscape:window-width="1920"
     inkscape:window-height="932"
     inkscape:window-x="0"
     inkscape:window-y="0"
     inkscape:window-maximized="1"
     inkscape:current-layer="layer1"><inkscape:page
       x="0"
       y="0"
       width="255.18488"
       height="117.28245"
       id="page2"
       margin="0"
       bleed="0" /></sodipodi:namedview><defs
     id="defs1" /><g
     inkscape:label="Layer 1"
     inkscape:groupmode="layer"
     id="layer1"
     transform="translate(13.849222,-126.08886)"><path
       style="fill:#0a9c3c"
       d="m 120.40072,151.37871 c -28.812507,0 -20.821752,-0.0779 -68.862086,-0.0779 l -4.599,0.1782 -2.64583,-2.15776 c -4.3183,-3.5217 -10.02871,-7.15375 -15.81195,-10.05702 -4.43496,-2.22642 -9.38937,-3.99966 -13.68909,-4.8995 -3.13958,-0.65705 -9.27289,-0.65955 -11.64167,-0.005 -4.36032,1.20533 -8.24167,3.82613 -10.82365,7.30844 -6.27185,8.45885 -8.16235,20.08395 -4.45513,27.39568 1.84574,3.64035 4.83304,6.9046 8.60035,9.39771 4.76487,3.15325 11.84678,6.34233 15.07895,6.79025 0.61847,0.0857 1.12448,0.24125 1.12448,0.34564 0,0.10439 -0.8632,0.76215 -1.91823,1.4617 -7.55406,5.00877 -11.70633997,9.62703 -15.11998,16.81684 -1.61699,3.40569 -2.38012,5.52641 -2.92302,8.12304 -2.32409,11.11585 0.66758,19.61093 8.87838,25.21081 3.16419,2.15802 7.85266,4.09412 11.46217,4.73329 0.86347,0.1529 3.4993,0.27801 5.85739,0.27801 3.80776,0 4.54724,-0.0753 6.60974,-0.67298 3.69122,-1.06968 7.71368,-3.62142 11.84113,-7.51172 3.32814,-3.13692 9.63261,-11.66659 10.15171,-13.73482 l 0.15978,-0.63662 66.307246,0.0942 c 36.46898,0.0518 66.95254,0.15611 67.74124,0.23172 l 1.434,0.13748 2.18173,3.70417 c 4.14607,7.03924 4.61702,7.78243 6.16974,9.73638 2.76113,3.47459 8.46963,7.19578 13.38678,8.72642 6.28652,1.9569 13.23381,1.82627 18.02797,-0.33897 6.22925,-2.81339 11.68078,-9.13998 14.10354,-16.36739 2.5404,-7.57834 1.94645,-15.4593 -1.6106,-21.37068 -2.5322,-4.2082 -9.17454,-11.11521 -14.74965,-15.33737 -4.6513,-3.52253 -4.64681,-3.51892 -4.50715,-3.62819 0.0621,-0.0486 1.77985,-0.62845 3.81714,-1.28851 4.34326,-1.40718 9.69408,-3.95999 11.85455,-5.65567 3.07991,-2.41731 5.51117,-6.81621 7.30307,-13.21352 3.47112,-12.39233 3.12981,-21.10742 -1.07299,-27.39797 -3.80944,-5.70178 -10.18339,-9.99595 -16.85546,-11.35564 -3.12427,-0.63668 -5.14983,-0.67215 -8.37292,-0.14662 -5.97997,0.97505 -10.05163,3.04919 -14.73528,7.50629 -3.49439,3.32536 -9.19858,11.1684 -11.61996,15.97699 l -1.03005,2.04556 -5.99576,0.0711 -28.59771,-0.19348 m -0.19865,-1.71147 c 0,0 16.91457,-0.18182 27.36452,-0.18182 4.67012,0 5.05629,0.005 5.73378,-0.50093 0.39954,-0.29816 1.89523,-2.38175 3.32376,-4.6302 3.31147,-5.21216 6.13292,-8.76247 9.70998,-12.21835 4.46259,-4.31142 8.40113,-6.62944 13.37692,-7.87293 2.12992,-0.53229 2.82385,-0.57735 7.14375,-0.4639 3.87567,0.10179 5.16168,0.23559 6.76905,0.70425 6.10227,1.77921 12.01277,6.30174 15.77112,12.06756 1.76394,2.70613 2.05258,3.38267 3.03169,7.10586 0.95317,3.62457 1.03941,7.07275 0.27019,10.80332 -0.27839,1.35016 -0.64376,3.46687 -0.81192,4.7038 -0.39698,2.92 -1.62634,8.06941 -2.52664,10.58333 -1.6282,4.54645 -3.95296,7.72774 -7.75271,10.6091 -2.03678,1.54451 -6.12148,3.67535 -8.72796,4.55307 -1.05726,0.35603 -1.99583,0.72086 -2.08571,0.81075 -0.24566,0.24566 0.57404,1.06077 3.4934,3.47385 3.55906,2.94183 9.26809,8.83214 10.77059,11.1126 2.68453,4.07452 4.3482,8.33453 4.95296,12.68263 1.16729,8.39249 -2.11459,17.94796 -8.44582,24.59075 -4.68957,4.92034 -10.18131,7.42939 -16.80273,7.67679 -1.60073,0.0598 -3.38667,0.0596 -3.96875,-4e-4 l 4.6e-4,3.7e-4 c -2.35677,-0.24304 -6.98347,-1.25901 -9.11369,-2.00127 -3.98711,-1.38927 -6.99041,-3.22182 -9.67713,-5.90478 -2.61084,-2.60718 -4.4426,-5.17461 -7.76929,-10.88963 -1.1986,-2.0591 -2.42267,-3.9641 -2.72016,-4.23333 -0.52283,-0.47316 -2.73352,-0.49161 -66.19594,-0.55262 -52.574606,-0.0505 -65.786836,0.004 -66.316506,0.27217 -0.3638,0.18441 -1.62458,1.78329 -2.80172,3.55306 -5.28913,7.95195 -10.9691,13.40197 -17.17432,16.47903 -3.86128,1.91474 -5.30414,2.23216 -10.18646,2.24101 -6.06371,0.011 -9.8551,-0.91154 -15.74271,-3.8305 -5.38293,-2.66876 -8.47038,-5.49164 -10.68385,-9.76834 -2.38294,-4.60411 -3.43084,-11.00118 -2.6571,-16.22059 1.31092,-8.84305 4.90016,-16.34673 10.60160003,-22.16377 0.92708997,-0.94588 2.78590997,-2.65752 4.13071997,-3.80363 1.3448,-1.14611 2.44416,-2.15814 2.44303,-2.24896 -0.003,-0.22797 -0.924,-0.66384 -4.76044,-2.25259 -4.74889,-1.96661 -10.84934,-6.07088 -13.31726,-8.95962 -2.95507,-3.45895 -5.39409,-9.38556 -5.66376,-13.76244 -0.14952,-2.42684 0.17387,-4.31469 1.68248,-9.82197 1.84803,-6.74635 5.59544,-12.53661 10.28708,-15.89495 2.1426,-1.5337 3.88879003,-2.3795 6.66553,-3.22857 2.07746,-0.63524 2.76092,-0.7137 6.29906,-0.72311 3.16542,-0.008 4.53108,0.11117 6.74687,0.59078 8.90601,1.92773 18.32505,6.47404 27.41037,13.23024 5.26301,3.91377 4.471434,3.54278 10.76808,3.54278 40.917489,0 54.822506,0.0421 54.822506,0.0421 12.02549,0.19436 12.07783,0.25125 12.07783,0.25125 z m -82.425726,1.09075 c -84.62238,-57.27731 -84.62238,-57.27731 0,0 z M 245.3453,222.79543 c 0.36928,-0.94411 0.59013,-1.25918 0.64614,-0.9218 0.0696,0.41894 -0.86013,2.35618 -1.13074,2.35618 -0.0421,0 0.17602,-0.64547 0.4846,-1.43438 z m -83.86651,-20.6388 c -1.57299,-0.6848 -1.7704,-1.70298 -1.9787,-10.20598 -0.1016,-4.14735 -0.27525,-8.93961 -0.38588,-10.64948 l -0.20116,-3.10886 h -1.3807 c -1.5579,0 -2.60731,-0.61887 -2.87796,-1.69724 -0.37487,-1.49359 0.75097,-2.60188 3.01002,-2.96311 l 1.11049,-0.17758 -0.14837,-1.08676 c -0.92696,-6.78959 -0.89335,-9.60679 0.1268,-10.62694 1.45449,-1.45449 3.82877,-1.06923 4.81095,0.78065 0.50782,0.95647 0.58681,1.57778 0.6595,5.18765 0.0454,2.25557 0.12739,4.23531 0.18216,4.39942 0.0712,0.21346 0.48955,0.22749 1.46993,0.0493 1.63881,-0.29786 2.25357,0.0889 2.55424,1.60687 0.3898,1.96798 -0.0972,2.73476 -2.05565,3.23669 l -1.29833,0.33276 v 3.99813 c 0,2.19897 0.123,5.53998 0.27334,7.42446 0.43002,5.39019 0.44935,11.4834 0.0395,12.45398 -0.57075,1.35164 -2.20436,1.78866 -3.91018,1.04604 z m -23.60547,-0.565 c -2.65299,-0.71396 -4.27802,-2.25919 -5.73469,-5.45309 -2.15118,-4.71666 -1.80647,-11.04306 0.93061,-17.07957 0.85264,-1.88045 3.7384,-6.34358 4.87998,-7.54739 0.81965,-0.86433 2.18005,-0.95603 4.84888,-0.32683 2.94134,0.69345 4.90014,2.04797 6.54482,4.52578 3.47803,5.23988 3.45356,13.4705 -0.0579,19.46182 -2.07192,3.53519 -5.17705,5.95434 -8.40076,6.54487 -0.86347,0.15818 -1.57784,0.27976 -1.5875,0.27018 -0.01,-0.01 -0.65022,-0.18767 -1.42348,-0.39577 z m 4.77813,-5.86074 c 2.71573,-2.58095 3.76135,-7.91087 2.62602,-13.38588 -0.58802,-2.83565 -1.87592,-5.9117 -2.58985,-6.18566 -0.71125,-0.27293 -2.2781,0.73778 -2.91836,1.8825 -0.31997,0.5721 -0.97581,2.35803 -1.45741,3.96875 -0.82377,2.75507 -0.87436,3.15589 -0.85385,6.76505 0.0187,3.29397 0.10462,4.05072 0.60755,5.35178 1.02888,2.66167 2.81521,3.28626 4.5859,1.60346 z m -121.385556,5.75758 c -0.72713,-0.29473 -1.15226,-0.84695 -1.46692,-1.90541 -0.44602,-1.50033 -0.99036,-8.4564 -1.29088,-16.49596 -0.15775,-4.2201 -0.40355,-8.92307 -0.54623,-10.45104 -0.57554,-6.16347 -0.32165,-7.53021 1.81638,-9.77775 1.46338,-1.53833 2.36993,-1.49152 3.61407,0.18661 0.51247,0.69122 2.72537,4.82864 4.91757,9.19427 4.33395,8.63078 7.21638,13.38742 7.7589,12.80385 0.0531,-0.0571 0.63893,-1.43281 1.30185,-3.05709 0.66291,-1.62428 1.68767,-3.91264 2.27724,-5.08524 0.58957,-1.1726 1.55805,-3.35598 2.15219,-4.85197 2.73226,-6.87967 4.83567,-10.21643 6.81109,-10.80486 2.94221,-0.87641 4.09647,2.12934 4.55355,11.85767 0.13167,2.80263 0.47164,6.5531 0.75547,8.33437 0.28383,1.78128 0.65208,4.36978 0.81833,5.75223 0.16625,1.38244 0.41429,3.23766 0.55119,4.12271 0.13691,0.88504 0.24893,2.67999 0.24893,3.98877 0,2.12671 -0.0633,2.43866 -0.59532,2.93528 -0.32742,0.30562 -0.91264,0.63441 -1.30049,0.73063 -0.84376,0.20935 -2.43782,-0.47496 -3.01595,-1.2947 -1.06917,-1.51599 -1.9034,-6.47875 -2.36254,-14.05457 -0.29484,-4.86503 -1.10113,-9.64528 -1.73746,-10.30094 -0.14493,-0.14933 -0.80451,0.94763 -1.67044,2.77813 -2.34299,4.95291 -3.96489,9.27128 -5.90595,15.72489 -0.4526,1.5048 -0.53652,1.60618 -1.61062,1.94605 -0.65553,0.20742 -1.51849,0.28626 -2.04736,0.18704 -0.85145,-0.15973 -1.08943,-0.46522 -3.46631,-4.4497 -1.40366,-2.353 -3.41939,-5.91389 -4.4794,-7.91307 -1.89102,-3.56643 -3.42544,-6.04219 -3.74483,-6.04219 -0.26972,0 0.1497,8.93528 0.56508,12.03854 0.21427,1.60073 0.63348,4.3987 0.93157,6.21771 0.87526,5.3409 0.6989,6.59737 -1.04908,7.47407 -0.98518,0.49411 -1.9128,0.56465 -2.78363,0.21167 z m 69.772752,-0.12572 c -1.7532,-0.57036 -3.13689,-1.66324 -3.77515,-2.98171 -1.54965,-3.20116 0.87106,-8.69691 3.597,-8.16629 1.46394,0.28496 2.10766,0.98835 2.19916,2.40303 0.0617,0.95427 -0.0511,1.45604 -0.44818,1.99311 -0.29187,0.39477 -0.56712,1.05572 -0.61166,1.46878 -0.0718,0.66569 0.0392,0.79182 0.97735,1.11028 2.98568,1.01356 6.26963,-0.89714 6.66981,-3.88071 0.31944,-2.3816 -0.70345,-4.23224 -2.93685,-5.3134 -1.00651,-0.48725 -1.69321,-0.55838 -5.92059,-0.61329 -4.64076,-0.0603 -4.80194,-0.0809 -5.4567,-0.69633 -1.97861,-1.85993 -1.4824,-5.17798 1.47117,-9.83747 2.31011,-3.64439 6.02994,-6.59394 8.31595,-6.59394 3.13555,0 5.614154,4.74333 4.22096,8.0777 -0.51583,1.23454 -1.41194,1.62742 -2.77827,1.21805 -0.85185,-0.25522 -1.17942,-0.55806 -1.76262,-1.62961 -0.7783,-1.42998 -1.19696,-1.58498 -2.48378,-0.91954 -1.22362,0.63275 -2.20307,2.11626 -2.22794,3.37449 -0.026,1.31436 0.28366,1.45442 3.30329,1.4942 5.44828,0.0718 9.105064,1.90566 10.844224,5.43838 0.77898,1.58235 0.82781,1.84827 0.74077,4.03465 -0.0791,1.98691 -0.22092,2.59998 -0.93846,4.05657 -1.14493,2.32417 -2.93557,4.07497 -5.356454,5.23729 -1.7076,0.81985 -2.26851,0.95521 -4.23334,1.02163 -1.43005,0.0483 -2.68689,-0.0607 -3.40969,-0.29587 z m 110.198124,-0.052 c -2.92805,-0.8996 -4.62808,-3.96145 -3.91492,-7.05101 0.5809,-2.51661 1.981,-3.8966 3.95335,-3.8966 0.859,0 1.1901,0.15445 1.74512,0.81405 0.78485,0.93274 0.86594,1.88379 0.25769,3.0224 -0.69736,1.30542 -0.9169,2.30141 -0.59324,2.69139 0.40333,0.48599 3.99457,0.47003 4.93627,-0.0219 1.39611,-0.72936 2.2521,-1.91101 2.43885,-3.36669 0.27748,-2.163 -0.066,-3.40154 -1.22051,-4.40032 -1.48673,-1.28625 -3.0684,-1.64831 -7.23263,-1.65563 -5.90952,-0.0104 -6.89729,-0.5172 -6.89729,-3.5389 0,-3.18868 2.0571,-7.25634 5.32293,-10.52544 2.12234,-2.12447 3.94814,-3.12727 5.69384,-3.12727 1.12595,0 1.3514,0.11128 2.36171,1.1657 1.43138,1.49387 2.32587,3.77609 2.16259,5.51771 -0.13588,1.44939 -0.67806,2.16877 -1.95122,2.58895 -1.25761,0.41505 -2.41458,-0.29133 -3.21007,-1.95991 -0.51885,-1.08829 -0.68064,-1.2347 -1.19063,-1.07742 -1.84659,0.56948 -2.82587,1.57327 -3.33384,3.41726 -0.44338,1.60949 -0.13387,1.77065 3.85194,2.00567 3.65331,0.21542 4.99176,0.57181 7.00904,1.8663 3.10046,1.98956 4.74502,5.41628 4.14985,8.64694 -0.57003,3.09422 -2.77417,6.31493 -5.35463,7.82419 -2.47363,1.44679 -6.26884,1.89481 -8.9842,1.06056 z M 63.632014,201.17978 c -1.47948,-0.34703 -2.68753,-1.17087 -3.06963,-2.09336 -0.54183,-1.30807 -0.21317,-4.3542 0.66218,-6.13733 1.49306,-3.04143 7.50451,-9.70412 10.7794,-11.94716 1.63697,-1.12118 1.61549,-1.03949 0.96229,-3.65983 -0.62643,-2.51295 -3.64688,-2.40886 -6.98219,0.24061 -2.28042,1.8115 -2.39195,1.83687 -3.44518,0.78364 -1.41878,-1.41878 -1.28954,-2.29936 0.60649,-4.13253 1.72396,-1.66681 4.11217,-2.93699 6.77539,-3.60354 1.70734,-0.42732 1.89828,-0.4277 3.23438,-0.007 1.8991,0.59864 2.76435,1.38415 3.89525,3.53625 2.164522,4.1191 3.186582,9.51397 3.195002,16.86461 0.009,7.77452 -0.44654,9.4189 -2.812252,10.15357 -1.1102,0.34478 -1.27823,0.33381 -2.08246,-0.13589 -0.94744,-0.55333 -1.22397,-1.19611 -1.26488,-2.94007 -0.0145,-0.61847 -0.10801,-1.12448 -0.20778,-1.12448 -0.0998,0 -0.72485,0.4564 -1.38906,1.01423 -2.04757,1.71963 -3.2447,2.37503 -5.36998,2.93994 -1.12511,0.29906 -2.13714,0.53178 -2.24896,0.51717 -0.11181,-0.0146 -0.66892,-0.1358 -1.23801,-0.26929 z m 6.7821,-5.88102 c 0.47695,-0.38484 1.54506,-1.20631 2.37357,-1.82548 l 1.50637,-1.12576 -0.0196,-1.85208 c -0.0108,-1.01865 -0.0933,-2.73359 -0.18345,-3.81099 l -0.16386,-1.9589 -1.98437,1.58082 c -1.09141,0.86945 -2.48234,2.22776 -3.09096,3.01847 -2.05956,2.67576 -3.02595,5.64762 -2.13457,6.56422 0.54691,0.56238 2.69298,0.21971 3.69687,-0.5903 z m 106.965116,5.52071 c -1.91253,-0.97528 -3.55012,-5.42416 -3.89755,-10.58862 -0.0665,-0.98929 -0.13135,-1.06696 -0.99338,-1.19062 -0.83662,-0.12002 -0.9394,-0.23049 -1.1078,-1.19063 -0.27161,-1.54858 0.14711,-2.60234 1.24139,-3.12417 0.85099,-0.40581 0.92088,-0.52997 0.92088,-1.63579 0,-3.21129 1.24291,-8.7334 2.54505,-11.30739 0.91628,-1.81124 1.64096,-2.11125 3.94959,-1.63509 4.80042,0.9901 8.83958,4.54535 8.83958,7.78057 0,2.27362 -1.85928,4.39465 -5.75282,6.56269 -1.20715,0.67218 -2.57688,1.54123 -3.04384,1.93123 -0.83882,0.70057 -0.84898,0.73723 -0.84652,3.05289 0.003,2.38925 0.53752,4.47219 1.31418,5.11676 0.83069,0.68941 3.03217,-1.09453 5.90763,-4.78716 1.77734,-2.28245 3.33724,-3.67433 4.11786,-3.67433 0.8645,0 2.0193,0.9707 2.0193,1.69738 0,0.86109 -0.96912,2.52618 -2.64584,4.54595 -1.48466,1.78841 -6.96174,6.77468 -8.69704,7.91768 -1.26952,0.8362 -2.84546,1.05144 -3.87067,0.52865 z m 3.83646,-20.15371 c 0.65485,-0.35292 1.47975,-0.86198 1.83312,-1.13126 l 0.64249,-0.4896 -0.45549,-1.19268 c -0.48682,-1.27474 -1.41884,-1.89798 -2.59031,-1.73212 -0.52395,0.0742 -0.6866,0.35528 -1.04592,1.80763 -0.23402,0.94588 -0.50925,2.17663 -0.61162,2.73498 -0.17789,0.97024 -0.15904,1.00699 0.42549,0.82995 0.33639,-0.10188 1.1474,-0.47399 1.80224,-0.8269 z m -67.99792,19.50413 c -2.30899,-0.70491 -4.00308,-2.18818 -4.48627,-3.92798 -0.47771,-1.72006 -0.34013,-7.39634 0.23364,-9.63975 0.97671,-3.81893 3.92118,-8.95058 7.12796,-12.42272 2.42253,-2.62299 4.524,-3.43183 6.39823,-2.46262 0.73122,0.37813 0.78061,0.50288 0.78061,1.97192 0,2.25134 -0.35188,2.79858 -2.82564,4.39443 -2.45305,1.58248 -3.58903,3.02467 -4.6839,5.94648 -0.76876,2.05156 -1.48629,5.35293 -1.48629,6.83848 0,1.50616 0.50666,3.66804 0.96769,4.12908 0.56258,0.56258 3.13516,0.50074 4.47444,-0.10755 0.59209,-0.26892 2.04004,-1.39002 3.21768,-2.49134 2.89294,-2.70544 4.52449,-3.00144 5.36459,-0.97325 0.42496,1.02594 0.0373,2.50571 -0.9701,3.70292 -1.39847,1.66199 -5.02905,3.77653 -8.12124,4.73002 -1.8399,0.56735 -4.67175,0.71476 -5.9914,0.31188 z"
       id="path1"
       sodipodi:nodetypes="cccssscsssssssssssssscsscssssssssssssssssccccscssssssssssssssssssccssssscsssssssscsssssscssssccssssssssscssscsssssssscsssssssssssssssssssssssssssssssssssssssssssssssssssssssssssssssssscssssssssssssssssssssssssssssssssssssssscsssssssscscsssssssccsscsscssssssssssssssscssssssssscssssssssssssssssssssss" /><path
       style="fill:#ffffff;stroke-width:1.06495"
       d="m 850.19365,564.51418 c -15.46476,-2.9461 -28.23825,-8.35099 -43.09223,-18.23374 -15.63005,-10.39911 -22.57044,-18.57585 -38.63844,-45.52147 -9.59254,-16.08644 -14.37238,-23.13361 -15.95134,-23.5179 -1.24,-0.30178 -116.64235,-0.89107 -256.44968,-1.30952 l -254.19513,-0.76081 -0.73074,2.91149 c -1.05602,4.20752 -14.83649,24.43835 -25.37084,37.2464 -14.70118,17.87425 -29.43015,30.07267 -45.90577,38.01878 -13.91555,6.7114 -19.38484,7.65556 -40.94076,7.06757 -21.97344,-0.59938 -28.18367,-2.04289 -46.385114,-10.78179 -25.151443,-12.07575 -40.714748,-29.54541 -47.585792,-53.4146 -2.060254,-7.15707 -2.428625,-10.86768 -2.374004,-23.91338 0.07755,-18.52133 2.905646,-31.83525 10.360453,-48.77418 13.016052,-29.5753 27.555578,-47.28484 54.387871,-66.24593 6.815626,-4.81626 12.645776,-9.1674 12.955896,-9.66919 0.31012,-0.50178 -0.77362,-1.18899 -2.40831,-1.52713 C 92.874745,342.987 66.272705,331.21163 50.058263,320.49859 32.540986,308.92473 18.784593,292.21857 13.270119,275.82199 4.6950196,250.32501 11.511082,214.635 30.367971,186.29485 c 10.005638,-15.03755 23.83528,-25.63643 40.239925,-30.83944 7.30484,-2.31685 10.236514,-2.63512 24.272503,-2.63512 17.967101,0 25.714261,1.26193 43.112031,7.02246 28.46483,9.42492 63.34398,28.82856 90.43929,50.31232 l 9.58455,7.59955 144.83316,0.51582 c 79.65825,0.2837 197.7878,0.81962 262.51012,1.19092 l 117.67695,0.6751 3.64455,-7.16407 c 8.40947,-16.53041 26.3741,-42.00255 39.97229,-56.67692 14.54525,-15.69637 31.93654,-26.33327 51.16368,-31.29285 14.14292,-3.64812 33.6004,-3.43783 46.62546,0.50391 26.78721,8.10655 49.8046,26.5118 61.02878,48.80003 9.7547,19.37026 11.15395,42.43051 4.57658,75.42416 -6.70686,33.64319 -18.56027,59.04465 -32.53878,69.72956 -7.68379,5.87333 -26.67765,14.9255 -43.48375,20.72366 -8.20011,2.82906 -14.90929,5.6429 -14.90929,6.25298 0,0.61008 4.79227,4.77131 10.6495,9.2472 30.59364,23.37862 56.5385,51.00019 65.02832,69.23083 6.22283,13.36262 7.35235,19.33756 7.34816,38.87067 -0.004,20.50543 -1.8016,29.10311 -9.48827,45.39093 -6.32706,13.40685 -12.23147,21.83128 -22.32436,31.85248 -10.25624,10.18338 -21.45884,17.40386 -33.10921,21.34008 -7.38424,2.49486 -10.57742,2.92634 -23.96137,3.2379 -10.06502,0.23428 -18.09619,-0.14623 -23.06514,-1.09283 z M 685.20051,409.13217 c 3.42938,-3.42938 4.18182,-13.42777 2.81943,-37.46471 -0.59756,-10.543 -1.09568,-27.32329 -1.10692,-37.28951 l -0.0204,-18.12042 5.30742,-1.88503 c 6.37593,-2.26454 7.92033,-4.69238 6.97881,-10.97089 -0.98044,-6.53806 -2.8816,-8.08375 -9.50483,-7.72767 l -5.44378,0.29267 -1.1152,-17.24994 c -0.94584,-14.63015 -1.44664,-17.69635 -3.29751,-20.18933 -3.1134,-4.19352 -6.62479,-5.76602 -11.55987,-5.17687 -5.49887,0.65647 -8.61678,4.24094 -9.54229,10.9702 -0.62972,4.57857 0.39954,19.59684 2.18555,31.89037 l 0.64139,4.41483 -4.18704,0.70739 c -8.86978,1.49854 -13.27661,6.6568 -10.93926,12.80452 1.22473,3.22127 6.70098,5.87962 12.11214,5.87962 h 3.65243 l 0.68232,14.11058 c 0.37528,7.76083 1.11585,25.99683 1.64574,40.52445 1.04683,28.70047 1.91405,32.83027 7.47468,35.59536 4.41103,2.19342 10.41494,1.68666 13.21722,-1.11562 z m -82.95986,-2.93548 c 8.98577,-3.34207 21.02703,-15.4336 26.43173,-26.5421 5.9019,-12.13037 7.56102,-19.79109 7.49587,-34.61087 -0.0472,-10.73356 -0.49095,-14.09964 -2.77193,-21.02631 -6.71406,-20.38853 -19.53193,-31.14287 -38.71697,-32.48402 -4.82796,-0.33749 -8.41393,-0.0653 -9.94685,0.75512 -3.55005,1.89994 -18.74899,25.77951 -22.33441,35.09038 -4.22368,10.96834 -6.49432,22.6957 -6.49432,33.54176 0,11.65487 1.4775,18.558 5.94716,27.78601 5.28004,10.90113 10.09477,15.71973 18.81044,18.82556 6.6895,2.38381 12.55522,2.02079 21.57928,-1.33553 z m -448.86657,0.60309 c 1.71072,-0.88464 3.64516,-2.60766 4.29875,-3.8289 1.82742,-3.41458 1.33709,-13.63792 -1.57801,-32.90084 -2.59864,-17.17178 -4.86402,-42.60487 -4.83775,-54.31244 l 0.0131,-5.85722 1.95186,2.53838 c 1.07353,1.39612 5.9449,9.7826 10.82529,18.63662 12.3913,22.48039 25.30718,44.1129 27.86539,46.67111 1.71827,1.71827 3.10339,2.05036 6.80947,1.63264 7.65489,-0.86282 9.25315,-2.60171 12.61789,-13.7282 6.72286,-22.23106 22.65613,-61.04977 25.87451,-63.03885 2.17485,-1.34413 5.15538,17.74373 7.70651,49.35381 1.3733,17.01617 3.73358,31.61196 6.0469,37.39349 3.0342,7.58322 11.0888,11.07196 17.07528,7.39591 5.88567,-3.61414 5.91716,-10.29022 0.2389,-50.64662 -1.73068,-12.30017 -3.86196,-32.42772 -4.7362,-44.72789 -1.77781,-25.01335 -2.96455,-33.09626 -5.8111,-39.57956 -5.32747,-12.1339 -15.96269,-9.23201 -25.56526,6.97568 -2.2957,3.87479 -7.48469,14.71272 -11.53109,24.08428 -4.0464,9.37156 -10.35528,23.74838 -14.01972,31.94849 -3.66444,8.20012 -7.12591,16.10737 -7.69214,17.57167 l -1.0295,2.66238 -2.8643,-3.40101 c -4.54937,-5.40187 -11.63544,-17.94309 -27.4479,-48.57845 -16.30237,-31.58454 -19.15785,-35.8789 -23.85727,-35.8789 -4.04615,0 -9.78787,5.08593 -12.82532,11.36044 -2.6768,5.52956 -2.66743,6.68244 0.58723,72.23812 2.44919,49.33154 3.69222,59.72624 7.71375,64.50557 2.08822,2.48171 3.48582,3.11874 6.84226,3.11874 2.31992,0 5.6177,-0.7238 7.32842,-1.60845 z m 281.56078,-2.1692 c 8.69317,-4.31479 15.58103,-10.83906 19.83279,-18.78588 3.17402,-5.93246 3.64863,-7.87993 4.03808,-16.56952 0.40252,-8.98099 0.19326,-10.35398 -2.37962,-15.61275 -6.47508,-13.23457 -21.31387,-20.76729 -41.09571,-20.86168 -12.70138,-0.0606 -14.67083,-2.01346 -10.47139,-10.38303 1.74396,-3.47574 3.73279,-5.58463 6.67397,-7.0768 l 4.1897,-2.1256 2.2,3.10405 c 5.88533,8.30381 10.22932,10.57438 15.99663,8.36125 4.60348,-1.76651 6.80127,-14.22455 3.83332,-21.72895 -2.11324,-5.34331 -6.09101,-10.38367 -9.64499,-12.22151 -6.78018,-3.50616 -14.33709,-1.24449 -24.97913,7.47587 -9.76025,7.99778 -20.7529,25.88592 -22.97118,37.38055 -1.13154,5.86339 -1.04295,7.00261 0.88327,11.35714 1.17753,2.66201 3.02469,5.29614 4.1048,5.85362 1.08011,0.55749 10.1107,1.33919 20.06798,1.73712 20.86525,0.83384 25.361,2.219 30.01174,9.24673 6.0691,9.17103 1.75907,22.55889 -8.51584,26.45196 -5.95731,2.25716 -16.74914,0.76871 -16.66749,-2.29885 0.0199,-0.74664 0.96206,-3.27445 2.09376,-5.61734 4.7462,-9.82578 1.21641,-17.62725 -8.09489,-17.89119 -10.5698,-0.29961 -18.54837,21.51904 -11.86746,32.45341 5.31523,8.6992 12.20195,11.62263 26.35205,11.18649 8.67969,-0.26753 11.01102,-0.75555 16.40961,-3.43509 z m 413.98415,1.64277 c 20.48252,-6.46086 33.5091,-30.68151 26.49417,-49.26124 -5.61729,-14.8779 -21.94401,-24.15286 -42.62248,-24.2132 -7.44622,-0.0217 -12.77939,-1.83893 -12.77939,-4.35439 0,-3.66495 4.203,-10.55356 7.76384,-12.72471 5.00714,-3.05301 6.82213,-2.64102 9.23945,2.09732 3.67135,7.19644 8.6421,9.18705 14.88262,5.95995 3.1889,-1.64905 5.38733,-6.27386 5.38733,-11.33329 0,-5.04222 -4.07463,-14.23536 -8.37319,-18.89155 -3.70226,-4.01026 -4.55493,-4.41838 -9.23114,-4.41838 -6.37498,0 -12.05802,2.66939 -19.41631,9.12006 -12.08055,10.59045 -21.56952,27.70786 -22.38255,40.37647 -0.86244,13.43859 1.88489,15.27751 24.08102,16.1186 8.00561,0.30336 16.87219,1.05678 19.70351,1.67426 6.50217,1.41806 13.41454,7.57408 13.64357,12.1507 0.78788,15.7442 -4.32538,21.73013 -18.56215,21.73013 -5.4696,0 -8.18966,-0.42546 -8.51059,-1.33118 -0.25943,-0.73216 0.41948,-3.62526 1.50867,-6.42913 2.77821,-7.15179 2.55991,-11.53738 -0.75219,-15.11119 -2.408,-2.59828 -3.30126,-2.88437 -7.52095,-2.40874 -8.42649,0.94978 -14.42233,9.19786 -14.52388,19.97955 -0.10039,10.6571 5.23303,18.42011 15.07044,21.93561 5.9613,2.13034 19.06411,1.8061 26.9002,-0.66565 z m -528.15474,-2.0759 c 3.33938,-1.26123 9.08136,-4.632 12.75993,-7.49058 7.04554,-5.47501 8.27709,-5.42711 8.30837,0.32316 0.0481,8.84842 7.89635,12.96792 15.6726,8.22646 6.59825,-4.02318 7.18767,-6.52527 7.58977,-32.21833 0.51675,-33.01832 -2.3665,-50.772 -11.04656,-68.01961 -6.35338,-12.62441 -15.1381,-17.47049 -26.90423,-14.84169 -17.24649,3.85323 -34.91227,17.25616 -32.64279,24.76589 0.9843,3.25707 5.80385,8.2695 7.95128,8.2695 0.95607,0 4.34081,-1.95641 7.52163,-4.34756 16.85731,-12.67234 26.3553,-11.90274 28.22331,2.28684 l 0.62178,4.72309 -7.47824,5.65105 c -13.13045,9.92222 -32.50639,31.97466 -38.54474,43.86912 -1.733,3.41371 -2.56498,7.24303 -2.89217,13.31187 -0.41211,7.64382 -0.21024,8.8344 1.96383,11.582 5.73391,7.24654 16.28122,8.67328 28.89623,3.90879 z m 424.49418,0.0563 c 4.38619,-2.23767 18.18546,-14.04784 29.09276,-24.89916 8.67174,-8.62724 15.8415,-19.11516 15.8415,-23.17293 0,-3.13543 -4.15731,-7.41059 -7.20632,-7.41059 -3.46898,0 -9.16408,4.92169 -17.96233,15.52296 -5.06706,6.10546 -11.38328,12.53847 -14.03602,14.29558 -4.47434,2.96368 -4.96047,3.07052 -6.72118,1.47711 -2.62347,-2.37421 -4.35721,-11.22005 -3.94219,-20.11367 l 0.34788,-7.45465 8.5196,-5.49859 c 21.02001,-13.56643 25.69337,-18.24501 26.8518,-26.88176 0.76552,-5.70733 -3.53412,-14.61233 -9.61128,-19.906 -10.0672,-8.76931 -30.47276,-15.12149 -35.41082,-11.02326 -5.14996,4.27409 -11.87986,26.06367 -12.94517,41.91293 -0.49423,7.35307 -1.0788,9.86813 -2.59901,11.18198 -1.07873,0.9323 -2.91979,2.53375 -4.09124,3.55876 -1.57525,1.37835 -2.12565,3.18094 -2.11359,6.92217 0.0194,6.01067 0.654,7.16618 4.44509,8.09346 2.4819,0.60706 2.94595,1.37478 3.47847,5.75496 2.07196,17.04238 6.39378,30.31947 11.70101,35.94677 2.91745,3.0934 4.25391,3.71854 7.94976,3.71854 2.44348,0 6.22857,-0.91108 8.41128,-2.02461 z m -229.62776,-3.78713 c 15.63354,-5.37041 29.43849,-15.58239 31.5878,-23.36651 1.34778,-4.88123 -0.19764,-10.8394 -3.23281,-12.46378 -3.58498,-1.91862 -9.12954,0.43724 -16.77897,7.12932 -12.19588,10.66951 -17.90799,13.23236 -26.07679,11.69989 -3.94034,-0.73922 -5.04522,-2.78668 -6.46611,-11.98244 -0.84688,-5.48093 1.84562,-20.47929 5.34583,-29.77848 3.74588,-9.95189 8.10617,-15.58371 16.96558,-21.913 9.52885,-6.80756 11.23986,-9.42335 11.23986,-17.18355 0,-7.17285 -2.14938,-9.21438 -9.70115,-9.21438 -3.83866,0 -6.13689,0.78648 -10.11384,3.46108 -10.68472,7.18575 -26.00712,29.15874 -32.50434,46.61267 -3.03371,8.14964 -3.41181,10.50492 -3.87437,24.13477 -0.28192,8.30709 -0.18651,16.84197 0.21203,18.9664 0.80175,4.2737 6.72791,11.51211 11.40537,13.93092 8.04573,4.16061 19.81964,4.1485 31.99191,-0.0329 z"
       id="path2"
       transform="matrix(0.26458333,0,0,0.26458333,-16.392136,93.70331)" /><path
       style="fill:#ffffff;stroke-width:1.06495"
       d="m 314.68094,385.34796 c -4.88716,-4.88715 4.69613,-22.50017 18.46271,-33.93238 6.81125,-5.6563 7.13669,-5.80127 7.80035,-3.47483 0.38091,1.33524 0.74033,7.46453 0.79872,13.62064 l 0.10615,11.19293 -7.3074,5.57285 c -7.14244,5.44705 -13.42496,8.78206 -16.5437,8.78206 -0.85556,0 -2.34813,-0.79257 -3.31683,-1.76127 z"
       id="path3"
       transform="matrix(0.26458333,0,0,0.26458333,-16.392136,93.70331)" /><path
       style="fill:#ffffff;stroke-width:1.06495"
       d="m 587.50579,384.7131 c -4.25103,-5.69227 -5.17905,-10.48758 -5.16247,-26.67601 0.0148,-14.48222 0.17838,-15.61833 3.85841,-26.80234 3.86847,-11.75672 6.21977,-15.52004 11.37202,-18.2012 3.43633,-1.78822 4.9758,-0.43245 8.29066,7.30134 5.38699,12.56822 7.62981,29.48843 5.517,41.62109 -3.56041,20.44541 -16.43652,32.71831 -23.87562,22.75712 z"
       id="path4"
       transform="matrix(0.26458333,0,0,0.26458333,-16.392136,93.70331)" /><path
       style="fill:#ffffff;stroke-width:0.2137"
       d="m 738.22557,331.76831 c -0.44477,-0.71965 2.98864,-15.79022 4.13598,-18.1544 0.84423,-1.73962 1.38082,-2.04007 3.62586,-2.03019 2.34941,0.0103 3.86309,0.57109 5.4338,2.01298 1.46448,1.34436 2.33079,2.82039 3.6058,6.14357 0.57359,1.49498 1.04288,2.7358 1.04288,2.75738 0,0.17021 -4.20221,3.1022 -6.09044,4.24946 -4.13066,2.50973 -9.98683,5.23553 -11.24812,5.23553 -0.20531,0 -0.4329,-0.0965 -0.50576,-0.21433 z"
       id="path5"
       transform="matrix(0.26458333,0,0,0.26458333,-16.392136,93.70331)" /></g></svg>
